<svg width="250" height="251" viewBox="0 0 250 251" fill="none" xmlns="http://www.w3.org/2000/svg">
<path d="M0 0.0313369C0 0.0313369 95.5 -4.59366 170.75 98.5313C228.5 177.656 250 250.031 250 250.031L225.75 237.531C207.75 206.281 198.375 193.406 180.75 175.031C149.125 184.281 116.125 183.156 87.5 150.031C112.5 143.031 132.5 144.656 162 147.656C128.875 125.031 106.25 120.031 75 125.031L62.5 100.031C85 95.7813 100 95.4063 122.25 100.531C97.625 83.1563 80.5 73.4063 50 75.0313L34.875 50.9063C54.375 49.5313 66.125 51.6563 88.5 57.1563C68.375 38.9063 50 30.6563 23.25 29.0313C23.25 29.0313 10.125 5.40634 0 0.0313369Z" fill="black"/>
</svg>
